# MagicaVoxel @ Ephtracy

# group
o 

# material
mtllib throwing_star.mtl
usemtl palette

# normals
vn -1 0 0
vn 1 0 0
vn 0 0 1
vn 0 0 -1
vn 0 -1 0
vn 0 1 0

# texcoords
vt 0.974609 0.5
vt 0.978516 0.5
vt 0.982422 0.5

# verts
v -1.7 0 -1.19209e-07
v -1.7 0 -0.1
v -1.7 0.1 -1.19209e-07
v -1.7 0.1 -0.1
v -1.6 0 -0.1
v -1.6 0 -0.2
v -1.6 0.1 -0.1
v -1.6 0.1 -0.2
v -1.5 0 -0.2
v -1.5 0 -0.3
v -1.5 0.1 -0.2
v -1.5 0.1 -0.3
v -1.4 0 -0.3
v -1.4 0 -0.4
v -1.4 0.1 -0.3
v -1.4 0.1 -0.4
v -1.3 0 -0.4
v -1.3 0 -0.5
v -1.3 0.1 -0.4
v -1.3 0.1 -0.5
v -1.2 0 -0.5
v -1.2 0 -0.6
v -1.2 0.1 -0.5
v -1.2 0.1 -0.6
v -0.8 0 0.5
v -0.8 0 0.0999999
v -0.8 0 -1.19209e-07
v -0.8 0.1 0.5
v -0.8 0.1 0.0999999
v -0.8 0.1 -1.19209e-07
v -0.7 0 0.6
v -0.7 0 0.5
v -0.7 0 -0.6
v -0.7 0 -1.5
v -0.7 0.1 0.6
v -0.7 0.1 0.5
v -0.7 0.1 -0.6
v -0.7 0.1 -1.5
v -0.6 0 0.7
v -0.6 0 0.6
v -0.6 0.1 0.7
v -0.6 0.1 0.6
v -0.5 0 0.8
v -0.5 0 0.7
v -0.5 0.1 0.8
v -0.5 0.1 0.7
v -0.4 0 0.9
v -0.4 0 0.8
v -0.4 0.1 0.9
v -0.4 0.1 0.8
v -0.3 0 1
v -0.3 0 0.9
v -0.3 0 -0.1
v -0.3 0 -0.2
v -0.3 0 -0.3
v -0.3 0 -0.4
v -0.3 0.1 1
v -0.3 0.1 0.9
v -0.3 0.1 -0.1
v -0.3 0.1 -0.2
v -0.3 0.1 -0.3
v -0.3 0.1 -0.4
v -0.6 0 -0.1
v -0.6 0 -0.2
v -0.6 0 -0.3
v -0.6 0 -0.4
v -0.6 0 -1.4
v -0.6 0 -1.5
v -0.6 0.1 -0.1
v -0.6 0.1 -0.2
v -0.6 0.1 -0.3
v -0.6 0.1 -0.4
v -0.6 0.1 -1.4
v -0.6 0.1 -1.5
v -0.5 0 -1.3
v -0.5 0 -1.4
v -0.5 0.1 -1.3
v -0.5 0.1 -1.4
v -0.4 0 -1.2
v -0.4 0 -1.3
v -0.4 0.1 -1.2
v -0.4 0.1 -1.3
v -0.3 0 -1.1
v -0.3 0 -1.2
v -0.3 0.1 -1.1
v -0.3 0.1 -1.2
v -0.2 0 1
v -0.2 0 0.0999999
v -0.2 0 -1
v -0.2 0 -1.1
v -0.2 0.1 1
v -0.2 0.1 0.0999999
v -0.2 0.1 -1
v -0.2 0.1 -1.1
v -0.0999999 0 -0.5
v -0.0999999 0 -0.6
v -0.0999999 0 -1
v -0.0999999 0.1 -0.5
v -0.0999999 0.1 -0.6
v -0.0999999 0.1 -1
v 0.3 0 0.0999999
v 0.3 0 -1.19209e-07
v 0.3 0.1 0.0999999
v 0.3 0.1 -1.19209e-07
v 0.4 0 -1.19209e-07
v 0.4 0 -0.1
v 0.4 0.1 -1.19209e-07
v 0.4 0.1 -0.1
v 0.5 0 -0.1
v 0.5 0 -0.2
v 0.5 0.1 -0.1
v 0.5 0.1 -0.2
v 0.6 0 -0.2
v 0.6 0 -0.3
v 0.6 0.1 -0.2
v 0.6 0.1 -0.3
v 0.7 0 -0.3
v 0.7 0 -0.4
v 0.7 0.1 -0.3
v 0.7 0.1 -0.4
v 0.8 0 -0.4
v 0.8 0 -0.5
v 0.8 0.1 -0.4
v 0.8 0.1 -0.5
v -0.3 0 1
v -0.3 0.1 1
v -0.2 0 1
v -0.2 0.1 1
v -0.4 0 0.9
v -0.4 0.1 0.9
v -0.3 0 0.9
v -0.3 0.1 0.9
v -0.5 0 0.8
v -0.5 0.1 0.8
v -0.4 0 0.8
v -0.4 0.1 0.8
v -0.6 0 0.7
v -0.6 0.1 0.7
v -0.5 0 0.7
v -0.5 0.1 0.7
v -0.7 0 0.6
v -0.7 0.1 0.6
v -0.6 0 0.6
v -0.6 0.1 0.6
v -0.8 0 0.5
v -0.8 0.1 0.5
v -0.7 0 0.5
v -0.7 0.1 0.5
v -0.2 0 0.0999999
v -0.2 0.1 0.0999999
v -0.0999999 0 0.0999999
v -0.0999999 0.1 0.0999999
v 0.3 0 0.0999999
v 0.3 0.1 0.0999999
v -1.7 0 -1.19209e-07
v -1.7 0.1 -1.19209e-07
v -0.8 0 -1.19209e-07
v -0.8 0.1 -1.19209e-07
v 0.3 0 -1.19209e-07
v 0.3 0.1 -1.19209e-07
v 0.4 0 -1.19209e-07
v 0.4 0.1 -1.19209e-07
v 0.4 0 -0.1
v 0.4 0.1 -0.1
v 0.5 0 -0.1
v 0.5 0.1 -0.1
v 0.5 0 -0.2
v 0.5 0.1 -0.2
v 0.6 0 -0.2
v 0.6 0.1 -0.2
v 0.6 0 -0.3
v 0.6 0.1 -0.3
v 0.7 0 -0.3
v 0.7 0.1 -0.3
v -0.6 0 -0.4
v -0.6 0.1 -0.4
v -0.5 0 -0.4
v -0.5 0.1 -0.4
v -0.4 0 -0.4
v -0.4 0.1 -0.4
v -0.3 0 -0.4
v -0.3 0.1 -0.4
v 0.7 0 -0.4
v 0.7 0.1 -0.4
v 0.8 0 -0.4
v 0.8 0.1 -0.4
v -1.7 0 -0.1
v -1.7 0.1 -0.1
v -1.6 0 -0.1
v -1.6 0.1 -0.1
v -0.6 0 -0.1
v -0.6 0.1 -0.1
v -0.5 0 -0.1
v -0.5 0.1 -0.1
v -0.4 0 -0.1
v -0.4 0.1 -0.1
v -0.3 0 -0.1
v -0.3 0.1 -0.1
v -1.6 0 -0.2
v -1.6 0.1 -0.2
v -1.5 0 -0.2
v -1.5 0.1 -0.2
v -1.5 0 -0.3
v -1.5 0.1 -0.3
v -1.4 0 -0.3
v -1.4 0.1 -0.3
v -1.4 0 -0.4
v -1.4 0.1 -0.4
v -1.3 0 -0.4
v -1.3 0.1 -0.4
v -1.3 0 -0.5
v -1.3 0.1 -0.5
v -1.2 0 -0.5
v -1.2 0.1 -0.5
v -0.0999999 0 -0.5
v -0.0999999 0.1 -0.5
v 0.8 0 -0.5
v 0.8 0.1 -0.5
v -1.2 0 -0.6
v -1.2 0.1 -0.6
v -0.8 0 -0.6
v -0.8 0.1 -0.6
v -0.7 0 -0.6
v -0.7 0.1 -0.6
v -0.2 0 -1
v -0.2 0.1 -1
v -0.0999999 0 -1
v -0.0999999 0.1 -1
v -0.3 0 -1.1
v -0.3 0.1 -1.1
v -0.2 0 -1.1
v -0.2 0.1 -1.1
v -0.4 0 -1.2
v -0.4 0.1 -1.2
v -0.3 0 -1.2
v -0.3 0.1 -1.2
v -0.5 0 -1.3
v -0.5 0.1 -1.3
v -0.4 0 -1.3
v -0.4 0.1 -1.3
v -0.6 0 -1.4
v -0.6 0.1 -1.4
v -0.5 0 -1.4
v -0.5 0.1 -1.4
v -0.7 0 -1.5
v -0.7 0.1 -1.5
v -0.6 0 -1.5
v -0.6 0.1 -1.5
v -0.3 0 1
v -0.2 0 1
v -0.4 0 0.9
v -0.3 0 0.9
v -0.5 0 0.8
v -0.4 0 0.8
v -0.6 0 0.7
v -0.5 0 0.7
v -0.7 0 0.6
v -0.6 0 0.6
v -0.5 0 0.6
v -0.4 0 0.6
v -0.8 0 0.5
v -0.7 0 0.5
v -0.5 0 0.4
v -0.4 0 0.4
v -0.5 0 0.3
v -0.4 0 0.3
v -0.5 0 0.2
v -0.4 0 0.2
v -0.8 0 0.0999999
v -0.7 0 0.0999999
v -0.3 0 0.0999999
v -0.2 0 0.0999999
v -0.0999999 0 0.0999999
v 0.3 0 0.0999999
v -1.7 0 -1.19209e-07
v -0.8 0 -1.19209e-07
v -0.7 0 -1.19209e-07
v -0.6 0 -1.19209e-07
v -0.5 0 -1.19209e-07
v -0.4 0 -1.19209e-07
v -0.2 0 -1.19209e-07
v -0.0999999 0 -1.19209e-07
v 0.3 0 -1.19209e-07
v 0.4 0 -1.19209e-07
v -1.7 0 -0.1
v -1.6 0 -0.1
v -0.8 0 -0.1
v -0.6 0 -0.1
v -0.5 0 -0.1
v -0.4 0 -0.1
v -0.3 0 -0.1
v -0.2 0 -0.1
v 0.4 0 -0.1
v 0.5 0 -0.1
v -1.6 0 -0.2
v -1.5 0 -0.2
v -1.3 0 -0.2
v -1.1 0 -0.2
v -1 0 -0.2
v -0.9 0 -0.2
v -0.7 0 -0.2
v -0.6 0 -0.2
v -0.3 0 -0.2
v -0.2 0 -0.2
v 1.19209e-07 0 -0.2
v 0.1 0 -0.2
v 0.2 0 -0.2
v 0.4 0 -0.2
v 0.5 0 -0.2
v 0.6 0 -0.2
v -1.5 0 -0.3
v -1.4 0 -0.3
v -1.3 0 -0.3
v -1.1 0 -0.3
v -1 0 -0.3
v -0.9 0 -0.3
v -0.7 0 -0.3
v -0.6 0 -0.3
v -0.3 0 -0.3
v -0.2 0 -0.3
v 1.19209e-07 0 -0.3
v 0.1 0 -0.3
v 0.2 0 -0.3
v 0.4 0 -0.3
v 0.6 0 -0.3
v 0.7 0 -0.3
v -1.4 0 -0.4
v -1.3 0 -0.4
v -0.7 0 -0.4
v -0.6 0 -0.4
v -0.5 0 -0.4
v -0.4 0 -0.4
v -0.3 0 -0.4
v -0.0999999 0 -0.4
v 0.7 0 -0.4
v 0.8 0 -0.4
v -1.3 0 -0.5
v -1.2 0 -0.5
v -0.8 0 -0.5
v -0.7 0 -0.5
v -0.5 0 -0.5
v -0.4 0 -0.5
v -0.3 0 -0.5
v -0.2 0 -0.5
v -0.0999999 0 -0.5
v 0.8 0 -0.5
v -1.2 0 -0.6
v -0.8 0 -0.6
v -0.7 0 -0.6
v -0.6 0 -0.6
v -0.2 0 -0.6
v -0.0999999 0 -0.6
v -0.5 0 -0.7
v -0.4 0 -0.7
v -0.5 0 -0.8
v -0.4 0 -0.8
v -0.5 0 -0.9
v -0.4 0 -0.9
v -0.2 0 -1
v -0.0999999 0 -1
v -0.5 0 -1.1
v -0.4 0 -1.1
v -0.3 0 -1.1
v -0.2 0 -1.1
v -0.4 0 -1.2
v -0.3 0 -1.2
v -0.5 0 -1.3
v -0.4 0 -1.3
v -0.6 0 -1.4
v -0.5 0 -1.4
v -0.7 0 -1.5
v -0.6 0 -1.5
v -0.3 0.1 1
v -0.2 0.1 1
v -0.4 0.1 0.9
v -0.3 0.1 0.9
v -0.5 0.1 0.8
v -0.4 0.1 0.8
v -0.6 0.1 0.7
v -0.5 0.1 0.7
v -0.7 0.1 0.6
v -0.6 0.1 0.6
v -0.5 0.1 0.6
v -0.4 0.1 0.6
v -0.8 0.1 0.5
v -0.7 0.1 0.5
v -0.5 0.1 0.4
v -0.4 0.1 0.4
v -0.5 0.1 0.3
v -0.4 0.1 0.3
v -0.5 0.1 0.2
v -0.4 0.1 0.2
v -0.8 0.1 0.0999999
v -0.7 0.1 0.0999999
v -0.3 0.1 0.0999999
v -0.2 0.1 0.0999999
v -0.0999999 0.1 0.0999999
v 0.3 0.1 0.0999999
v -1.7 0.1 -1.19209e-07
v -0.8 0.1 -1.19209e-07
v -0.7 0.1 -1.19209e-07
v -0.6 0.1 -1.19209e-07
v -0.5 0.1 -1.19209e-07
v -0.4 0.1 -1.19209e-07
v -0.2 0.1 -1.19209e-07
v -0.0999999 0.1 -1.19209e-07
v 0.3 0.1 -1.19209e-07
v 0.4 0.1 -1.19209e-07
v -1.7 0.1 -0.1
v -1.6 0.1 -0.1
v -0.8 0.1 -0.1
v -0.6 0.1 -0.1
v -0.5 0.1 -0.1
v -0.4 0.1 -0.1
v -0.3 0.1 -0.1
v -0.2 0.1 -0.1
v 0.4 0.1 -0.1
v 0.5 0.1 -0.1
v -1.6 0.1 -0.2
v -1.5 0.1 -0.2
v -1.3 0.1 -0.2
v -1.1 0.1 -0.2
v -1 0.1 -0.2
v -0.9 0.1 -0.2
v -0.7 0.1 -0.2
v -0.6 0.1 -0.2
v -0.3 0.1 -0.2
v -0.2 0.1 -0.2
v 1.19209e-07 0.1 -0.2
v 0.1 0.1 -0.2
v 0.2 0.1 -0.2
v 0.4 0.1 -0.2
v 0.5 0.1 -0.2
v 0.6 0.1 -0.2
v -1.5 0.1 -0.3
v -1.4 0.1 -0.3
v -1.3 0.1 -0.3
v -1.1 0.1 -0.3
v -1 0.1 -0.3
v -0.9 0.1 -0.3
v -0.7 0.1 -0.3
v -0.6 0.1 -0.3
v -0.3 0.1 -0.3
v -0.2 0.1 -0.3
v 1.19209e-07 0.1 -0.3
v 0.1 0.1 -0.3
v 0.2 0.1 -0.3
v 0.4 0.1 -0.3
v 0.6 0.1 -0.3
v 0.7 0.1 -0.3
v -1.4 0.1 -0.4
v -1.3 0.1 -0.4
v -0.7 0.1 -0.4
v -0.6 0.1 -0.4
v -0.5 0.1 -0.4
v -0.4 0.1 -0.4
v -0.3 0.1 -0.4
v -0.0999999 0.1 -0.4
v 0.7 0.1 -0.4
v 0.8 0.1 -0.4
v -1.3 0.1 -0.5
v -1.2 0.1 -0.5
v -0.8 0.1 -0.5
v -0.7 0.1 -0.5
v -0.5 0.1 -0.5
v -0.4 0.1 -0.5
v -0.3 0.1 -0.5
v -0.2 0.1 -0.5
v -0.0999999 0.1 -0.5
v 0.8 0.1 -0.5
v -1.2 0.1 -0.6
v -0.8 0.1 -0.6
v -0.7 0.1 -0.6
v -0.6 0.1 -0.6
v -0.2 0.1 -0.6
v -0.0999999 0.1 -0.6
v -0.5 0.1 -0.7
v -0.4 0.1 -0.7
v -0.5 0.1 -0.8
v -0.4 0.1 -0.8
v -0.5 0.1 -0.9
v -0.4 0.1 -0.9
v -0.2 0.1 -1
v -0.0999999 0.1 -1
v -0.5 0.1 -1.1
v -0.4 0.1 -1.1
v -0.3 0.1 -1.1
v -0.2 0.1 -1.1
v -0.4 0.1 -1.2
v -0.3 0.1 -1.2
v -0.5 0.1 -1.3
v -0.4 0.1 -1.3
v -0.6 0.1 -1.4
v -0.5 0.1 -1.4
v -0.7 0.1 -1.5
v -0.6 0.1 -1.5

# faces
f 3/3/1 2/3/1 1/3/1
f 4/3/1 2/3/1 3/3/1
f 7/2/1 6/2/1 5/2/1
f 8/2/1 6/2/1 7/2/1
f 11/2/1 10/2/1 9/2/1
f 12/2/1 10/2/1 11/2/1
f 15/2/1 14/2/1 13/2/1
f 16/2/1 14/2/1 15/2/1
f 19/1/1 18/1/1 17/1/1
f 20/1/1 18/1/1 19/1/1
f 23/1/1 22/1/1 21/1/1
f 24/1/1 22/1/1 23/1/1
f 28/1/1 26/1/1 25/1/1
f 29/3/1 27/3/1 26/3/1
f 29/1/1 26/1/1 28/1/1
f 30/3/1 27/3/1 29/3/1
f 35/1/1 32/1/1 31/1/1
f 36/1/1 32/1/1 35/1/1
f 37/3/1 34/3/1 33/3/1
f 38/3/1 34/3/1 37/3/1
f 41/2/1 40/2/1 39/2/1
f 42/2/1 40/2/1 41/2/1
f 45/2/1 44/2/1 43/2/1
f 46/2/1 44/2/1 45/2/1
f 49/2/1 48/2/1 47/2/1
f 50/2/1 48/2/1 49/2/1
f 57/3/1 52/3/1 51/3/1
f 58/3/1 52/3/1 57/3/1
f 59/3/1 54/3/1 53/3/1
f 60/1/1 55/1/1 54/1/1
f 60/3/1 54/3/1 59/3/1
f 61/3/1 56/3/1 55/3/1
f 61/1/1 55/1/1 60/1/1
f 62/3/1 56/3/1 61/3/1
f 63/3/2 64/3/2 69/3/2
f 64/1/2 65/1/2 70/1/2
f 69/3/2 64/3/2 70/3/2
f 65/3/2 66/3/2 71/3/2
f 70/1/2 65/1/2 71/1/2
f 71/3/2 66/3/2 72/3/2
f 67/3/2 68/3/2 73/3/2
f 73/3/2 68/3/2 74/3/2
f 75/2/2 76/2/2 77/2/2
f 77/2/2 76/2/2 78/2/2
f 79/2/2 80/2/2 81/2/2
f 81/2/2 80/2/2 82/2/2
f 83/2/2 84/2/2 85/2/2
f 85/2/2 84/2/2 86/2/2
f 87/3/2 88/3/2 91/3/2
f 91/3/2 88/3/2 92/3/2
f 89/1/2 90/1/2 93/1/2
f 93/1/2 90/1/2 94/1/2
f 95/3/2 96/3/2 98/3/2
f 96/1/2 97/1/2 99/1/2
f 98/3/2 96/3/2 99/3/2
f 99/1/2 97/1/2 100/1/2
f 101/1/2 102/1/2 103/1/2
f 103/1/2 102/1/2 104/1/2
f 105/1/2 106/1/2 107/1/2
f 107/1/2 106/1/2 108/1/2
f 109/2/2 110/2/2 111/2/2
f 111/2/2 110/2/2 112/2/2
f 113/2/2 114/2/2 115/2/2
f 115/2/2 114/2/2 116/2/2
f 117/2/2 118/2/2 119/2/2
f 119/2/2 118/2/2 120/2/2
f 121/3/2 122/3/2 123/3/2
f 123/3/2 122/3/2 124/3/2
f 127/3/3 126/3/3 125/3/3
f 128/3/3 126/3/3 127/3/3
f 131/2/3 130/2/3 129/2/3
f 132/2/3 130/2/3 131/2/3
f 135/2/3 134/2/3 133/2/3
f 136/2/3 134/2/3 135/2/3
f 139/2/3 138/2/3 137/2/3
f 140/2/3 138/2/3 139/2/3
f 143/1/3 142/1/3 141/1/3
f 144/1/3 142/1/3 143/1/3
f 147/1/3 146/1/3 145/1/3
f 148/1/3 146/1/3 147/1/3
f 151/3/3 150/3/3 149/3/3
f 152/3/3 150/3/3 151/3/3
f 153/1/3 152/1/3 151/1/3
f 154/1/3 152/1/3 153/1/3
f 157/3/3 156/3/3 155/3/3
f 158/3/3 156/3/3 157/3/3
f 161/1/3 160/1/3 159/1/3
f 162/1/3 160/1/3 161/1/3
f 165/2/3 164/2/3 163/2/3
f 166/2/3 164/2/3 165/2/3
f 169/2/3 168/2/3 167/2/3
f 170/2/3 168/2/3 169/2/3
f 173/2/3 172/2/3 171/2/3
f 174/2/3 172/2/3 173/2/3
f 177/3/3 176/3/3 175/3/3
f 178/3/3 176/3/3 177/3/3
f 179/1/3 178/1/3 177/1/3
f 180/1/3 178/1/3 179/1/3
f 181/3/3 180/3/3 179/3/3
f 182/3/3 180/3/3 181/3/3
f 185/3/3 184/3/3 183/3/3
f 186/3/3 184/3/3 185/3/3
f 187/3/4 188/3/4 189/3/4
f 189/3/4 188/3/4 190/3/4
f 191/3/4 192/3/4 193/3/4
f 193/3/4 192/3/4 194/3/4
f 193/1/4 194/1/4 195/1/4
f 195/1/4 194/1/4 196/1/4
f 195/3/4 196/3/4 197/3/4
f 197/3/4 196/3/4 198/3/4
f 199/2/4 200/2/4 201/2/4
f 201/2/4 200/2/4 202/2/4
f 203/2/4 204/2/4 205/2/4
f 205/2/4 204/2/4 206/2/4
f 207/2/4 208/2/4 209/2/4
f 209/2/4 208/2/4 210/2/4
f 211/1/4 212/1/4 213/1/4
f 213/1/4 212/1/4 214/1/4
f 215/3/4 216/3/4 217/3/4
f 217/3/4 216/3/4 218/3/4
f 219/1/4 220/1/4 221/1/4
f 221/1/4 220/1/4 222/1/4
f 221/3/4 222/3/4 223/3/4
f 223/3/4 222/3/4 224/3/4
f 225/1/4 226/1/4 227/1/4
f 227/1/4 226/1/4 228/1/4
f 229/1/4 230/1/4 231/1/4
f 231/1/4 230/1/4 232/1/4
f 233/2/4 234/2/4 235/2/4
f 235/2/4 234/2/4 236/2/4
f 237/2/4 238/2/4 239/2/4
f 239/2/4 238/2/4 240/2/4
f 241/2/4 242/2/4 243/2/4
f 243/2/4 242/2/4 244/2/4
f 245/3/4 246/3/4 247/3/4
f 247/3/4 246/3/4 248/3/4
f 252/3/5 250/3/5 249/3/5
f 254/2/5 252/2/5 251/2/5
f 256/2/5 254/2/5 253/2/5
f 258/2/5 256/2/5 255/2/5
f 259/2/5 254/2/5 256/2/5
f 259/2/5 256/2/5 258/2/5
f 260/2/5 252/2/5 254/2/5
f 260/2/5 254/2/5 259/2/5
f 262/1/5 258/1/5 257/1/5
f 263/2/5 259/2/5 258/2/5
f 263/3/5 260/3/5 259/3/5
f 264/2/5 252/2/5 260/2/5
f 264/3/5 260/3/5 263/3/5
f 265/2/5 263/2/5 258/2/5
f 265/2/5 264/2/5 263/2/5
f 266/2/5 252/2/5 264/2/5
f 266/2/5 264/2/5 265/2/5
f 267/2/5 265/2/5 258/2/5
f 267/3/5 266/3/5 265/3/5
f 268/2/5 252/2/5 266/2/5
f 268/3/5 266/3/5 267/3/5
f 269/1/5 262/1/5 261/1/5
f 270/1/5 258/1/5 262/1/5
f 270/1/5 262/1/5 269/1/5
f 271/3/5 250/3/5 252/3/5
f 271/2/5 252/2/5 268/2/5
f 271/2/5 268/2/5 267/2/5
f 272/3/5 250/3/5 271/3/5
f 276/3/5 270/3/5 269/3/5
f 277/1/5 258/1/5 270/1/5
f 277/3/5 270/3/5 276/3/5
f 278/2/5 267/2/5 258/2/5
f 278/1/5 258/1/5 277/1/5
f 278/2/5 271/2/5 267/2/5
f 278/2/5 272/2/5 271/2/5
f 279/2/5 272/2/5 278/2/5
f 280/2/5 272/2/5 279/2/5
f 281/3/5 273/3/5 272/3/5
f 281/2/5 272/2/5 280/2/5
f 282/1/5 274/1/5 273/1/5
f 282/3/5 273/3/5 281/3/5
f 283/1/5 274/1/5 282/1/5
f 285/3/5 276/3/5 275/3/5
f 286/3/5 276/3/5 285/3/5
f 287/2/5 277/2/5 276/2/5
f 287/3/5 276/3/5 286/3/5
f 288/3/5 278/3/5 277/3/5
f 288/3/5 279/3/5 278/3/5
f 289/1/5 280/1/5 279/1/5
f 289/3/5 279/3/5 288/3/5
f 290/3/5 281/3/5 280/3/5
f 290/1/5 280/1/5 289/1/5
f 291/3/5 281/3/5 290/3/5
f 292/1/5 284/1/5 283/1/5
f 292/3/5 281/3/5 291/3/5
f 292/1/5 282/1/5 281/1/5
f 292/1/5 283/1/5 282/1/5
f 293/1/5 284/1/5 292/1/5
f 295/2/5 287/2/5 286/2/5
f 296/2/5 287/2/5 295/2/5
f 297/2/5 287/2/5 296/2/5
f 298/2/5 287/2/5 297/2/5
f 299/2/5 287/2/5 298/2/5
f 300/2/5 287/2/5 299/2/5
f 301/3/5 288/3/5 277/3/5
f 301/2/5 287/2/5 300/2/5
f 301/2/5 277/2/5 287/2/5
f 302/3/5 288/3/5 301/3/5
f 303/3/5 292/3/5 291/3/5
f 304/2/5 294/2/5 293/2/5
f 304/3/5 292/3/5 303/3/5
f 304/2/5 293/2/5 292/2/5
f 305/2/5 294/2/5 304/2/5
f 306/2/5 294/2/5 305/2/5
f 307/2/5 294/2/5 306/2/5
f 308/2/5 294/2/5 307/2/5
f 309/2/5 294/2/5 308/2/5
f 311/2/5 297/2/5 296/2/5
f 312/2/5 297/2/5 311/2/5
f 313/3/5 298/3/5 297/3/5
f 313/2/5 297/2/5 312/2/5
f 314/2/5 299/2/5 298/2/5
f 314/3/5 298/3/5 313/3/5
f 315/3/5 300/3/5 299/3/5
f 315/2/5 299/2/5 314/2/5
f 316/2/5 301/2/5 300/2/5
f 316/3/5 300/3/5 315/3/5
f 317/1/5 302/1/5 301/1/5
f 317/2/5 301/2/5 316/2/5
f 318/1/5 302/1/5 317/1/5
f 319/1/5 304/1/5 303/1/5
f 320/2/5 305/2/5 304/2/5
f 320/1/5 304/1/5 319/1/5
f 321/3/5 306/3/5 305/3/5
f 321/2/5 305/2/5 320/2/5
f 322/2/5 307/2/5 306/2/5
f 322/3/5 306/3/5 321/3/5
f 323/3/5 308/3/5 307/3/5
f 323/2/5 307/2/5 322/2/5
f 324/2/5 310/2/5 309/2/5
f 324/3/5 308/3/5 323/3/5
f 324/2/5 309/2/5 308/2/5
f 325/2/5 310/2/5 324/2/5
f 327/2/5 315/2/5 314/2/5
f 327/2/5 316/2/5 315/2/5
f 327/2/5 314/2/5 313/2/5
f 327/2/5 313/2/5 312/2/5
f 327/2/5 317/2/5 316/2/5
f 328/2/5 317/2/5 327/2/5
f 329/3/5 318/3/5 317/3/5
f 329/2/5 317/2/5 328/2/5
f 330/3/5 318/3/5 329/3/5
f 333/3/5 320/3/5 319/3/5
f 334/2/5 326/2/5 325/2/5
f 334/2/5 325/2/5 324/2/5
f 334/2/5 324/2/5 323/2/5
f 334/2/5 323/2/5 322/2/5
f 334/2/5 322/2/5 321/2/5
f 334/2/5 321/2/5 320/2/5
f 335/2/5 326/2/5 334/2/5
f 337/1/5 329/1/5 328/1/5
f 338/1/5 329/1/5 337/1/5
f 339/1/5 329/1/5 338/1/5
f 340/3/5 331/3/5 330/3/5
f 340/1/5 329/1/5 339/1/5
f 340/3/5 330/3/5 329/3/5
f 341/1/5 332/1/5 331/1/5
f 341/3/5 331/3/5 340/3/5
f 342/3/5 333/3/5 332/3/5
f 342/1/5 332/1/5 341/1/5
f 343/3/5 320/3/5 333/3/5
f 343/3/5 333/3/5 342/3/5
f 344/2/5 334/2/5 320/2/5
f 344/3/5 320/3/5 343/3/5
f 345/3/5 336/3/5 335/3/5
f 345/2/5 334/2/5 344/2/5
f 345/3/5 335/3/5 334/3/5
f 346/3/5 336/3/5 345/3/5
f 347/1/5 339/1/5 338/1/5
f 348/3/5 340/3/5 339/3/5
f 348/1/5 339/1/5 347/1/5
f 349/2/5 341/2/5 340/2/5
f 349/3/5 340/3/5 348/3/5
f 349/2/5 342/2/5 341/2/5
f 349/2/5 343/2/5 342/2/5
f 350/2/5 343/2/5 349/2/5
f 351/3/5 345/3/5 344/3/5
f 351/1/5 344/1/5 343/1/5
f 352/3/5 345/3/5 351/3/5
f 353/2/5 343/2/5 350/2/5
f 354/2/5 343/2/5 353/2/5
f 355/2/5 353/2/5 350/2/5
f 355/3/5 354/3/5 353/3/5
f 356/2/5 343/2/5 354/2/5
f 356/3/5 354/3/5 355/3/5
f 357/2/5 355/2/5 350/2/5
f 357/2/5 356/2/5 355/2/5
f 358/2/5 343/2/5 356/2/5
f 358/2/5 356/2/5 357/2/5
f 359/1/5 352/1/5 351/1/5
f 359/1/5 351/1/5 343/1/5
f 360/1/5 352/1/5 359/1/5
f 361/3/5 358/3/5 357/3/5
f 361/2/5 357/2/5 350/2/5
f 362/2/5 343/2/5 358/2/5
f 362/3/5 358/3/5 361/3/5
f 363/1/5 359/1/5 343/1/5
f 363/2/5 343/2/5 362/2/5
f 364/1/5 359/1/5 363/1/5
f 365/2/5 362/2/5 361/2/5
f 365/2/5 363/2/5 362/2/5
f 366/2/5 363/2/5 365/2/5
f 367/2/5 361/2/5 350/2/5
f 367/2/5 365/2/5 361/2/5
f 368/2/5 365/2/5 367/2/5
f 369/3/5 350/3/5 349/3/5
f 369/2/5 367/2/5 350/2/5
f 370/2/5 367/2/5 369/2/5
f 371/3/5 369/3/5 349/3/5
f 372/3/5 369/3/5 371/3/5
f 373/3/6 374/3/6 376/3/6
f 375/2/6 376/2/6 378/2/6
f 377/2/6 378/2/6 380/2/6
f 379/2/6 380/2/6 382/2/6
f 380/2/6 378/2/6 383/2/6
f 382/2/6 380/2/6 383/2/6
f 378/2/6 376/2/6 384/2/6
f 383/2/6 378/2/6 384/2/6
f 381/1/6 382/1/6 386/1/6
f 382/2/6 383/2/6 387/2/6
f 383/3/6 384/3/6 387/3/6
f 384/2/6 376/2/6 388/2/6
f 387/3/6 384/3/6 388/3/6
f 382/2/6 387/2/6 389/2/6
f 387/2/6 388/2/6 389/2/6
f 388/2/6 376/2/6 390/2/6
f 389/2/6 388/2/6 390/2/6
f 382/2/6 389/2/6 391/2/6
f 389/3/6 390/3/6 391/3/6
f 390/2/6 376/2/6 392/2/6
f 391/3/6 390/3/6 392/3/6
f 385/1/6 386/1/6 393/1/6
f 386/1/6 382/1/6 394/1/6
f 393/1/6 386/1/6 394/1/6
f 376/3/6 374/3/6 395/3/6
f 392/2/6 376/2/6 395/2/6
f 391/2/6 392/2/6 395/2/6
f 395/3/6 374/3/6 396/3/6
f 393/3/6 394/3/6 400/3/6
f 394/1/6 382/1/6 401/1/6
f 400/3/6 394/3/6 401/3/6
f 382/2/6 391/2/6 402/2/6
f 401/1/6 382/1/6 402/1/6
f 391/2/6 395/2/6 402/2/6
f 395/2/6 396/2/6 402/2/6
f 402/2/6 396/2/6 403/2/6
f 403/2/6 396/2/6 404/2/6
f 396/3/6 397/3/6 405/3/6
f 404/2/6 396/2/6 405/2/6
f 397/1/6 398/1/6 406/1/6
f 405/3/6 397/3/6 406/3/6
f 406/1/6 398/1/6 407/1/6
f 399/3/6 400/3/6 409/3/6
f 409/3/6 400/3/6 410/3/6
f 400/2/6 401/2/6 411/2/6
f 410/3/6 400/3/6 411/3/6
f 401/3/6 402/3/6 412/3/6
f 402/3/6 403/3/6 412/3/6
f 403/1/6 404/1/6 413/1/6
f 412/3/6 403/3/6 413/3/6
f 404/3/6 405/3/6 414/3/6
f 413/1/6 404/1/6 414/1/6
f 414/3/6 405/3/6 415/3/6
f 407/1/6 408/1/6 416/1/6
f 415/3/6 405/3/6 416/3/6
f 405/1/6 406/1/6 416/1/6
f 406/1/6 407/1/6 416/1/6
f 416/1/6 408/1/6 417/1/6
f 410/2/6 411/2/6 419/2/6
f 419/2/6 411/2/6 420/2/6
f 420/2/6 411/2/6 421/2/6
f 421/2/6 411/2/6 422/2/6
f 422/2/6 411/2/6 423/2/6
f 423/2/6 411/2/6 424/2/6
f 401/3/6 412/3/6 425/3/6
f 424/2/6 411/2/6 425/2/6
f 411/2/6 401/2/6 425/2/6
f 425/3/6 412/3/6 426/3/6
f 415/3/6 416/3/6 427/3/6
f 417/2/6 418/2/6 428/2/6
f 427/3/6 416/3/6 428/3/6
f 416/2/6 417/2/6 428/2/6
f 428/2/6 418/2/6 429/2/6
f 429/2/6 418/2/6 430/2/6
f 430/2/6 418/2/6 431/2/6
f 431/2/6 418/2/6 432/2/6
f 432/2/6 418/2/6 433/2/6
f 420/2/6 421/2/6 435/2/6
f 435/2/6 421/2/6 436/2/6
f 421/3/6 422/3/6 437/3/6
f 436/2/6 421/2/6 437/2/6
f 422/2/6 423/2/6 438/2/6
f 437/3/6 422/3/6 438/3/6
f 423/3/6 424/3/6 439/3/6
f 438/2/6 423/2/6 439/2/6
f 424/2/6 425/2/6 440/2/6
f 439/3/6 424/3/6 440/3/6
f 425/1/6 426/1/6 441/1/6
f 440/2/6 425/2/6 441/2/6
f 441/1/6 426/1/6 442/1/6
f 427/1/6 428/1/6 443/1/6
f 428/2/6 429/2/6 444/2/6
f 443/1/6 428/1/6 444/1/6
f 429/3/6 430/3/6 445/3/6
f 444/2/6 429/2/6 445/2/6
f 430/2/6 431/2/6 446/2/6
f 445/3/6 430/3/6 446/3/6
f 431/3/6 432/3/6 447/3/6
f 446/2/6 431/2/6 447/2/6
f 433/2/6 434/2/6 448/2/6
f 447/3/6 432/3/6 448/3/6
f 432/2/6 433/2/6 448/2/6
f 448/2/6 434/2/6 449/2/6
f 438/2/6 439/2/6 451/2/6
f 439/2/6 440/2/6 451/2/6
f 437/2/6 438/2/6 451/2/6
f 436/2/6 437/2/6 451/2/6
f 440/2/6 441/2/6 451/2/6
f 451/2/6 441/2/6 452/2/6
f 441/3/6 442/3/6 453/3/6
f 452/2/6 441/2/6 453/2/6
f 453/3/6 442/3/6 454/3/6
f 443/3/6 444/3/6 457/3/6
f 449/2/6 450/2/6 458/2/6
f 448/2/6 449/2/6 458/2/6
f 447/2/6 448/2/6 458/2/6
f 446/2/6 447/2/6 458/2/6
f 445/2/6 446/2/6 458/2/6
f 444/2/6 445/2/6 458/2/6
f 458/2/6 450/2/6 459/2/6
f 452/1/6 453/1/6 461/1/6
f 461/1/6 453/1/6 462/1/6
f 462/1/6 453/1/6 463/1/6
f 454/3/6 455/3/6 464/3/6
f 463/1/6 453/1/6 464/1/6
f 453/3/6 454/3/6 464/3/6
f 455/1/6 456/1/6 465/1/6
f 464/3/6 455/3/6 465/3/6
f 456/3/6 457/3/6 466/3/6
f 465/1/6 456/1/6 466/1/6
f 457/3/6 444/3/6 467/3/6
f 466/3/6 457/3/6 467/3/6
f 444/2/6 458/2/6 468/2/6
f 467/3/6 444/3/6 468/3/6
f 459/3/6 460/3/6 469/3/6
f 468/2/6 458/2/6 469/2/6
f 458/3/6 459/3/6 469/3/6
f 469/3/6 460/3/6 470/3/6
f 462/1/6 463/1/6 471/1/6
f 463/3/6 464/3/6 472/3/6
f 471/1/6 463/1/6 472/1/6
f 464/2/6 465/2/6 473/2/6
f 472/3/6 464/3/6 473/3/6
f 465/2/6 466/2/6 473/2/6
f 466/2/6 467/2/6 473/2/6
f 473/2/6 467/2/6 474/2/6
f 468/3/6 469/3/6 475/3/6
f 467/1/6 468/1/6 475/1/6
f 475/3/6 469/3/6 476/3/6
f 474/2/6 467/2/6 477/2/6
f 477/2/6 467/2/6 478/2/6
f 474/2/6 477/2/6 479/2/6
f 477/3/6 478/3/6 479/3/6
f 478/2/6 467/2/6 480/2/6
f 479/3/6 478/3/6 480/3/6
f 474/2/6 479/2/6 481/2/6
f 479/2/6 480/2/6 481/2/6
f 480/2/6 467/2/6 482/2/6
f 481/2/6 480/2/6 482/2/6
f 475/1/6 476/1/6 483/1/6
f 467/1/6 475/1/6 483/1/6
f 483/1/6 476/1/6 484/1/6
f 481/3/6 482/3/6 485/3/6
f 474/2/6 481/2/6 485/2/6
f 482/2/6 467/2/6 486/2/6
f 485/3/6 482/3/6 486/3/6
f 467/1/6 483/1/6 487/1/6
f 486/2/6 467/2/6 487/2/6
f 487/1/6 483/1/6 488/1/6
f 485/2/6 486/2/6 489/2/6
f 486/2/6 487/2/6 489/2/6
f 489/2/6 487/2/6 490/2/6
f 474/2/6 485/2/6 491/2/6
f 485/2/6 489/2/6 491/2/6
f 491/2/6 489/2/6 492/2/6
f 473/3/6 474/3/6 493/3/6
f 474/2/6 491/2/6 493/2/6
f 493/2/6 491/2/6 494/2/6
f 473/3/6 493/3/6 495/3/6
f 495/3/6 493/3/6 496/3/6
